<?xml version="1.0" encoding="UTF-8" standalone="no"?>
<!DOCTYPE svg PUBLIC "-//W3C//DTD SVG 1.1//EN" "http://www.w3.org/Graphics/SVG/1.1/DTD/svg11.dtd">
<svg version="1.1" xmlns="http://www.w3.org/2000/svg" xmlns:xlink="http://www.w3.org/1999/xlink" preserveAspectRatio="xMidYMid meet" viewBox="0 0 80 80" width="80" height="80"><defs><path d="M66.9 33.9C66.46 34.51 64.24 37.54 60.25 42.99L53.52 33.79L46.79 42.99L40.06 33.79L33.33 42.99L26.6 33.79L19.87 42.99L13.13 33.79C13.13 33.79 13.13 33.79 13.13 33.79C11.44 39.42 10.51 44.85 10.51 49.2C10.51 65.49 23.71 78.69 40 78.69C56.29 78.69 69.49 65.49 69.49 49.2C69.49 44.88 68.57 39.49 66.9 33.9Z" id="a4q0tp78b"></path><path d="M62.63 39.75C63.35 43.19 63.73 46.42 63.73 49.2C63.73 64.52 52.05 77.11 37.12 78.55C38.54 78.69 39.71 78.68 40 78.69C56.29 78.69 69.49 65.49 69.49 49.2C69.49 44.88 68.57 39.49 66.9 33.9C66.05 35.07 63.05 39.16 62.63 39.75Z" id="a5vByn7aJc"></path><path d="M19.87 42.99L26.6 33.79L33.33 42.99L40.06 33.79L46.79 42.99L53.52 33.79L60.25 42.99C61.73 40.97 62.55 39.85 62.71 39.63C61.83 30.49 57.79 5.87 40.05 5.87C22.31 5.87 18.29 30.45 17.39 39.6C17.72 40.05 18.55 41.18 19.87 42.99Z" id="a6fHbetxc"></path><path d="M37.17 6.11C51.73 8.5 55.73 28.88 56.81 38.28C57.04 38.6 58.19 40.17 60.25 42.99C61.73 40.97 62.55 39.85 62.71 39.63C61.83 30.49 57.79 5.88 40.05 5.88C39.08 5.88 38.12 5.95 37.17 6.11Z" id="a3p9JEuWUK"></path><path d="M66.9 33.9C66.46 34.51 64.24 37.54 60.25 42.99L53.52 33.79L46.79 42.99L40.06 33.79L33.33 42.99L26.6 33.79L19.87 42.99L13.13 33.79C13.13 33.79 13.13 33.79 13.13 33.79C11.44 39.42 10.51 44.85 10.51 49.2C10.51 65.49 23.71 78.69 40 78.69C56.29 78.69 69.49 65.49 69.49 49.2C69.49 44.88 68.57 39.49 66.9 33.9Z" id="e3ilOCbGln"></path><path d="M43.62 1.31L40.05 5.88L36.48 1.31" id="d3lSXKPt5F"></path><path d="M58.54 21.42C55.31 13.25 49.71 5.88 40 5.88C30.29 5.88 24.69 13.25 21.46 21.42" id="b3YaHt81a5"></path><path d="M18.64 31.28C18.08 34.03 17.66 36.81 17.39 39.61C17.56 39.83 18.38 40.96 19.87 42.99L26.6 33.79L33.33 42.99L40.06 33.79L46.79 42.99L53.52 33.79L60.25 42.99C61.73 40.97 62.55 39.85 62.71 39.63C62.44 36.77 62.01 33.94 61.43 31.13" id="db4lPVv3"></path><path d="M35.14 19.41L31.16 19.41" id="baTupSEBz"></path><path d="M44.54 19.41L48.52 19.41" id="cwZQKcdFd"></path><path d="M43.62 24.5C43.38 24.73 42.19 25.88 40.05 27.94C37.91 25.88 36.72 24.73 36.48 24.5C36.48 24.5 37.78 22.44 40.05 22.44C42.32 22.44 42.91 24.09 43.62 24.5Z" id="a8x1TzW9X"></path><path d="M43.62 24.5C43.38 24.73 42.19 25.88 40.05 27.94C37.91 25.88 36.72 24.73 36.48 24.5C36.48 24.5 37.78 22.44 40.05 22.44C42.32 22.44 42.91 24.09 43.62 24.5Z" id="a13cIwsaw3"></path><path d="M24.23 29.82C24.23 29.82 14.96 33.11 13.65 29.82C13.65 29.82 21.51 21.42 21.51 21.42" id="eboThEmXb"></path><path d="M55.87 29.82C55.87 29.82 65.14 33.11 66.45 29.82C66.45 29.82 58.59 21.42 58.59 21.42" id="ad1NrOaYO"></path><path d="M24.23 29.82C24.23 29.82 14.96 33.11 13.65 29.82C13.65 29.82 21.51 21.42 21.51 21.42" id="c424fUabNV"></path><path d="M55.87 29.82C55.87 29.82 65.14 33.11 66.45 29.82C66.45 29.82 58.59 21.42 58.59 21.42" id="a1bvhcP7PD"></path></defs><g><g><g><use xlink:href="#a4q0tp78b" opacity="1" fill="#ffcf8a" fill-opacity="1"></use><g><use xlink:href="#a4q0tp78b" opacity="1" fill-opacity="0" stroke="#000000" stroke-width="1" stroke-opacity="0"></use></g></g><g><use xlink:href="#a5vByn7aJc" opacity="1" fill="#f9b96b" fill-opacity="1"></use><g><use xlink:href="#a5vByn7aJc" opacity="1" fill-opacity="0" stroke="#000000" stroke-width="1" stroke-opacity="0"></use></g></g><g><use xlink:href="#a6fHbetxc" opacity="1" fill="#ffd72e" fill-opacity="1"></use><g><use xlink:href="#a6fHbetxc" opacity="1" fill-opacity="0" stroke="#000000" stroke-width="1" stroke-opacity="0"></use></g></g><g><use xlink:href="#a3p9JEuWUK" opacity="1" fill="#ffbf0b" fill-opacity="1"></use><g><use xlink:href="#a3p9JEuWUK" opacity="1" fill-opacity="0" stroke="#000000" stroke-width="1" stroke-opacity="0"></use></g></g><g><use xlink:href="#e3ilOCbGln" opacity="1" fill="#000000" fill-opacity="0"></use><g><use xlink:href="#e3ilOCbGln" opacity="1" fill-opacity="0" stroke="#000000" stroke-width="2" stroke-opacity="1"></use></g></g><g><use xlink:href="#d3lSXKPt5F" opacity="1" fill="#000000" fill-opacity="0"></use><g><use xlink:href="#d3lSXKPt5F" opacity="1" fill-opacity="0" stroke="#000000" stroke-width="2" stroke-opacity="1"></use></g></g><g><use xlink:href="#b3YaHt81a5" opacity="1" fill="#000000" fill-opacity="0"></use><g><use xlink:href="#b3YaHt81a5" opacity="1" fill-opacity="0" stroke="#000000" stroke-width="2" stroke-opacity="1"></use></g></g><g><use xlink:href="#db4lPVv3" opacity="1" fill="#000000" fill-opacity="0"></use><g><use xlink:href="#db4lPVv3" opacity="1" fill-opacity="0" stroke="#000000" stroke-width="2" stroke-opacity="1"></use></g></g><g><use xlink:href="#baTupSEBz" opacity="1" fill="#000000" fill-opacity="0"></use><g><use xlink:href="#baTupSEBz" opacity="1" fill-opacity="0" stroke="#000000" stroke-width="2" stroke-opacity="1"></use></g></g><g><use xlink:href="#cwZQKcdFd" opacity="1" fill="#000000" fill-opacity="0"></use><g><use xlink:href="#cwZQKcdFd" opacity="1" fill-opacity="0" stroke="#000000" stroke-width="2" stroke-opacity="1"></use></g></g><g><use xlink:href="#a8x1TzW9X" opacity="1" fill="#f36d21" fill-opacity="1"></use><g><use xlink:href="#a8x1TzW9X" opacity="1" fill-opacity="0" stroke="#000000" stroke-width="1" stroke-opacity="0"></use></g></g><g><use xlink:href="#a13cIwsaw3" opacity="1" fill="#000000" fill-opacity="0"></use><g><use xlink:href="#a13cIwsaw3" opacity="1" fill-opacity="0" stroke="#000000" stroke-width="2" stroke-opacity="1"></use></g></g><g><use xlink:href="#eboThEmXb" opacity="1" fill="#ffd72e" fill-opacity="1"></use><g><use xlink:href="#eboThEmXb" opacity="1" fill-opacity="0" stroke="#000000" stroke-width="1" stroke-opacity="0"></use></g></g><g><use xlink:href="#ad1NrOaYO" opacity="1" fill="#ffbf0b" fill-opacity="1"></use><g><use xlink:href="#ad1NrOaYO" opacity="1" fill-opacity="0" stroke="#000000" stroke-width="1" stroke-opacity="0"></use></g></g><g><use xlink:href="#c424fUabNV" opacity="1" fill="#000000" fill-opacity="0"></use><g><use xlink:href="#c424fUabNV" opacity="1" fill-opacity="0" stroke="#000000" stroke-width="2" stroke-opacity="1"></use></g></g><g><use xlink:href="#a1bvhcP7PD" opacity="1" fill="#000000" fill-opacity="0"></use><g><use xlink:href="#a1bvhcP7PD" opacity="1" fill-opacity="0" stroke="#000000" stroke-width="2" stroke-opacity="1"></use></g></g></g></g></svg>