<?xml version="1.0" encoding="UTF-8" standalone="no"?>
<!DOCTYPE svg PUBLIC "-//W3C//DTD SVG 1.1//EN" "http://www.w3.org/Graphics/SVG/1.1/DTD/svg11.dtd">
<svg version="1.1" xmlns="http://www.w3.org/2000/svg" xmlns:xlink="http://www.w3.org/1999/xlink" preserveAspectRatio="xMidYMid meet" viewBox="0 0 80 80" width="80" height="80"><defs><path d="M34.76 77.91L33.1 77.61L31.49 77.23L29.92 76.77L28.4 76.23L26.92 75.6L25.48 74.9L24.1 74.12L22.75 73.25L21.45 72.31L20.2 71.28L18.99 70.18L17.83 68.99L16.71 67.72L15.63 66.38L14.6 64.95L13.62 63.44L12.68 61.86L11.79 60.19L11.14 58.79L10.58 57.28L10.1 55.67L9.7 53.98L9.38 52.21L9.15 50.37L9 48.47L8.92 46.51L8.93 44.52L9.02 42.49L9.18 40.43L9.43 38.36L9.75 36.28L10.16 34.21L10.64 32.14L11.2 30.1L11.84 28.08L12.55 26.11L13.34 24.18L14.21 22.3L15.15 20.49L16.07 18.92L17.05 17.42L18.09 15.99L19.18 14.62L20.31 13.32L21.49 12.09L22.7 10.93L23.93 9.83L25.19 8.8L26.47 7.84L27.75 6.95L29.05 6.12L30.34 5.36L31.62 4.66L32.9 4.04L34.16 3.48L35.39 2.98L36.6 2.55L37.78 2.19L38.91 1.9L40 1.67L41.09 1.9L42.22 2.19L43.4 2.55L44.61 2.98L45.84 3.48L47.1 4.04L48.38 4.66L49.66 5.36L50.95 6.12L52.25 6.95L53.53 7.84L54.81 8.8L56.07 9.83L57.3 10.93L58.51 12.09L59.69 13.32L60.82 14.62L61.91 15.99L62.95 17.42L63.93 18.92L64.85 20.49L65.79 22.3L66.66 24.18L67.45 26.11L68.16 28.08L68.8 30.1L69.36 32.14L69.84 34.21L70.25 36.28L70.57 38.36L70.82 40.43L70.98 42.49L71.07 44.52L71.08 46.51L71 48.47L70.85 50.37L70.62 52.21L70.3 53.98L69.9 55.67L69.42 57.28L68.86 58.79L68.21 60.19L67.32 61.86L66.38 63.44L65.4 64.95L64.37 66.38L63.29 67.72L62.17 68.99L61.01 70.18L59.8 71.28L58.55 72.31L57.25 73.25L55.9 74.12L54.52 74.9L53.08 75.6L51.6 76.23L50.08 76.77L48.51 77.23L46.9 77.61L45.24 77.91L43.54 78.13L41.79 78.27L40 78.33L38.21 78.27L36.46 78.13L34.76 77.91Z" id="c9LtznwgI"></path></defs><g><g><g><use xlink:href="#c9LtznwgI" opacity="1" fill="#ffcf8a" fill-opacity="1"></use><g><use xlink:href="#c9LtznwgI" opacity="1" fill-opacity="0" stroke="#000000" stroke-width="3" stroke-opacity="1"></use></g></g></g></g></svg>